<svg id="visual" viewBox="0 0 960 300" width="960" height="300" xmlns="http://www.w3.org/2000/svg" xmlns:xlink="http://www.w3.org/1999/xlink" version="1.1"><rect x="0" y="0" width="960" height="300" fill="#252525"></rect><path d="M0 85L16 87.8C32 90.7 64 96.3 96 98C128 99.7 160 97.3 192 99.8C224 102.3 256 109.7 288 110.2C320 110.7 352 104.3 384 99.5C416 94.7 448 91.3 480 93C512 94.7 544 101.3 576 100.8C608 100.3 640 92.7 672 93.7C704 94.7 736 104.3 768 109.8C800 115.3 832 116.7 864 111.5C896 106.3 928 94.7 944 88.8L960 83L960 0L944 0C928 0 896 0 864 0C832 0 800 0 768 0C736 0 704 0 672 0C640 0 608 0 576 0C544 0 512 0 480 0C448 0 416 0 384 0C352 0 320 0 288 0C256 0 224 0 192 0C160 0 128 0 96 0C64 0 32 0 16 0L0 0Z" fill="#c62368"></path><path d="M0 97L16 93.5C32 90 64 83 96 81.2C128 79.3 160 82.7 192 83.5C224 84.3 256 82.7 288 80.7C320 78.7 352 76.3 384 78.8C416 81.3 448 88.7 480 90C512 91.3 544 86.7 576 82C608 77.3 640 72.7 672 72.2C704 71.7 736 75.3 768 77C800 78.7 832 78.3 864 79C896 79.7 928 81.3 944 82.2L960 83L960 0L944 0C928 0 896 0 864 0C832 0 800 0 768 0C736 0 704 0 672 0C640 0 608 0 576 0C544 0 512 0 480 0C448 0 416 0 384 0C352 0 320 0 288 0C256 0 224 0 192 0C160 0 128 0 96 0C64 0 32 0 16 0L0 0Z" fill="#d72a62"></path><path d="M0 65L16 64C32 63 64 61 96 61.2C128 61.3 160 63.7 192 63C224 62.3 256 58.7 288 56.8C320 55 352 55 384 54C416 53 448 51 480 51C512 51 544 53 576 56.8C608 60.7 640 66.3 672 68.2C704 70 736 68 768 64.5C800 61 832 56 864 56.7C896 57.3 928 63.7 944 66.8L960 70L960 0L944 0C928 0 896 0 864 0C832 0 800 0 768 0C736 0 704 0 672 0C640 0 608 0 576 0C544 0 512 0 480 0C448 0 416 0 384 0C352 0 320 0 288 0C256 0 224 0 192 0C160 0 128 0 96 0C64 0 32 0 16 0L0 0Z" fill="#e7345a"></path><path d="M0 54L16 51.5C32 49 64 44 96 41C128 38 160 37 192 37.3C224 37.7 256 39.3 288 39.5C320 39.7 352 38.3 384 40.5C416 42.7 448 48.3 480 50.2C512 52 544 50 576 49.7C608 49.3 640 50.7 672 49C704 47.3 736 42.7 768 41.8C800 41 832 44 864 46.8C896 49.7 928 52.3 944 53.7L960 55L960 0L944 0C928 0 896 0 864 0C832 0 800 0 768 0C736 0 704 0 672 0C640 0 608 0 576 0C544 0 512 0 480 0C448 0 416 0 384 0C352 0 320 0 288 0C256 0 224 0 192 0C160 0 128 0 96 0C64 0 32 0 16 0L0 0Z" fill="#f44151"></path><path d="M0 16L16 15.7C32 15.3 64 14.7 96 16.5C128 18.3 160 22.7 192 26C224 29.3 256 31.7 288 32.5C320 33.3 352 32.7 384 32.3C416 32 448 32 480 29.3C512 26.7 544 21.3 576 20.2C608 19 640 22 672 21.8C704 21.7 736 18.3 768 16.8C800 15.3 832 15.7 864 17.7C896 19.7 928 23.3 944 25.2L960 27L960 0L944 0C928 0 896 0 864 0C832 0 800 0 768 0C736 0 704 0 672 0C640 0 608 0 576 0C544 0 512 0 480 0C448 0 416 0 384 0C352 0 320 0 288 0C256 0 224 0 192 0C160 0 128 0 96 0C64 0 32 0 16 0L0 0Z" fill="#ff5047"></path></svg>